<?xml version="1.0" standalone="no"?>
<!DOCTYPE svg PUBLIC "-//W3C//DTD SVG 20010904//EN"
 "http://www.w3.org/TR/2001/REC-SVG-20010904/DTD/svg10.dtd">
<svg version="1.0" xmlns="http://www.w3.org/2000/svg"
 width="401.000000pt" height="401.000000pt" viewBox="0 0 401.000000 401.000000"
 preserveAspectRatio="xMidYMid meet">
<metadata>
Created by potrace 1.14, written by Peter Selinger 2001-2017
</metadata>
<g transform="translate(0.000000,401.000000) scale(0.100000,-0.100000)"
fill="#000000" stroke="none">
<path d="M2988 2485 c-2 -2 -61 -6 -133 -10 -214 -11 -269 -28 -445 -135 -41
-25 -87 -51 -102 -57 -15 -7 -34 -27 -44 -44 -29 -57 2 -116 91 -173 17 -11
37 -27 45 -36 28 -30 118 -90 171 -114 63 -29 385 -94 544 -111 53 -6 384 -7
410 -1 11 2 40 7 65 10 25 4 56 11 70 15 14 5 52 16 85 26 129 38 155 59 155
126 0 92 -193 302 -370 402 -46 26 -207 81 -270 93 -36 6 -267 14 -272 9z
m238 -230 c16 -5 34 -9 40 -11 126 -26 276 -113 343 -198 14 -17 22 -28 18
-25 -4 3 -33 0 -65 -7 -40 -9 -110 -12 -240 -9 -100 2 -186 6 -190 8 -4 3 -34
8 -67 12 -32 3 -62 8 -65 10 -3 2 -26 6 -50 10 -25 3 -52 8 -60 10 -8 2 -36 6
-61 9 -90 12 -185 42 -237 76 l-52 35 22 17 c56 42 129 60 263 65 72 2 134 5
139 7 21 5 237 -2 262 -9z"/>
<path d="M3024 2225 c-35 -24 -49 -70 -36 -114 15 -47 39 -70 78 -72 51 -3 63
0 90 28 23 23 26 32 21 76 -3 39 -11 56 -31 74 -32 27 -90 31 -122 8z"/>
<path d="M818 2425 c-2 -2 -17 -6 -34 -9 -58 -10 -209 -57 -269 -83 -142 -62
-341 -215 -366 -281 -13 -35 -11 -80 7 -117 26 -55 156 -113 294 -131 25 -3
74 -12 110 -19 152 -32 549 23 706 97 51 23 164 132 216 206 62 89 72 177 25
219 -36 33 -58 41 -208 73 -79 17 -155 33 -169 36 -29 7 -306 15 -312 9z m237
-231 c68 -11 171 -37 178 -44 4 -4 -7 -21 -26 -37 -40 -35 -134 -67 -262 -89
-49 -8 -124 -21 -165 -28 -84 -14 -118 -13 -235 4 -116 17 -139 21 -143 24 -4
4 95 65 153 94 38 19 167 62 185 62 5 0 3 -12 -5 -26 -30 -58 24 -134 95 -134
54 0 90 32 97 88 5 35 1 49 -16 73 l-22 29 68 -5 c37 -3 82 -8 98 -11z"/>
<path d="M776 1703 c-35 -18 -59 -67 -51 -104 17 -76 149 -190 306 -263 109
-50 328 -128 429 -152 218 -51 340 -62 640 -58 243 3 293 5 385 20 87 13 104
16 220 40 294 60 431 119 541 234 94 98 106 145 55 202 -25 28 -36 33 -75 33
-43 0 -50 -4 -113 -66 -109 -108 -158 -126 -518 -194 -16 -3 -43 -8 -59 -10
-15 -2 -35 -6 -45 -9 -91 -26 -704 -27 -831 -1 -13 2 -42 7 -65 10 -79 12
-202 45 -335 90 -200 69 -295 120 -344 185 -42 56 -88 70 -140 43z"/>
</g>
</svg>
